HIERARCHY
ROOT Hips
{
	OFFSET 0.00 0.00 0.00
	CHANNELS 6 Xposition Yposition Zposition Xrotation Yrotation Zrotation
	JOINT RightUpLeg
	{
		OFFSET -4.47808 0.00000 0.00000
		CHANNELS 3 Xrotation Yrotation Zrotation
		JOINT RightLeg
		{
			OFFSET 0.00000 -16.40577 0.00000
			CHANNELS 3 Xrotation Yrotation Zrotation
			JOINT RightFoot
			{
				OFFSET 0.00000 -14.64414 0.00000
				CHANNELS 3 Xrotation Yrotation Zrotation
				JOINT RightToeBase
				{
					OFFSET 0.00000 -1.50274 5.60831
					CHANNELS 3 Xrotation Yrotation Zrotation
					End Site
					{
						OFFSET 0.00000 0.00000 2.95275
					}
				}
			}
		}
	}
	JOINT LeftUpLeg
	{
		OFFSET 4.47808 0.00000 0.00000
		CHANNELS 3 Xrotation Yrotation Zrotation
		JOINT LeftLeg
		{
			OFFSET 0.00000 -16.40577 0.00000
			CHANNELS 3 Xrotation Yrotation Zrotation
			JOINT LeftFoot
			{
				OFFSET 0.00000 -14.64414 0.00000
				CHANNELS 3 Xrotation Yrotation Zrotation
				JOINT LeftToeBase
				{
					OFFSET 0.00000 -1.50274 5.60831
					CHANNELS 3 Xrotation Yrotation Zrotation
					End Site
					{
						OFFSET 0.00000 0.00000 2.95275
					}
				}
			}
		}
	}
	JOINT Spine
	{
		OFFSET 0.00000 6.06821 0.00000
		CHANNELS 3 Xrotation Yrotation Zrotation
		JOINT RightShoulder
		{
			OFFSET 0.00000 10.01392 0.00000
			CHANNELS 3 Xrotation Yrotation Zrotation
			JOINT RightArm
			{
				OFFSET -7.19022 0.00000 0.00000
				CHANNELS 3 Xrotation Yrotation Zrotation
				JOINT RightForeArm
				{
					OFFSET -10.17747 0.00000 0.00000
					CHANNELS 3 Yrotation Zrotation Xrotation
					JOINT RightHand
					{
						OFFSET -8.39211 0.00000 0.00000
						CHANNELS 3 Xrotation Yrotation Zrotation
						End Site
						{
							OFFSET -3.93700 0.00000 0.00000
						}
						JOINT RightHandThumb1
						{
							OFFSET 0.00000 0.00000 0.00000
							CHANNELS 3 Xrotation Zrotation Yrotation
							End Site
							{
								OFFSET 0.00000 0.00000 3.93700
							}
						}
					}
				}
			}
		}
		JOINT LeftShoulder
		{
			OFFSET 0.00000 10.01392 0.00000
			CHANNELS 3 Xrotation Yrotation Zrotation
			JOINT LeftArm
			{
				OFFSET 7.19022 0.00000 0.00000
				CHANNELS 3 Xrotation Yrotation Zrotation
				JOINT LeftForeArm
				{
					OFFSET 10.17747 0.00000 0.00000
					CHANNELS 3 Yrotation Zrotation Xrotation
					JOINT LeftHand
					{
						OFFSET 8.39211 0.00000 0.00000
						CHANNELS 3 Xrotation Yrotation Zrotation
						End Site
						{
							OFFSET 3.93700 0.00000 0.00000
						}
						JOINT LeftHandThumb1
						{
							OFFSET 0.00000 0.00000 0.00000
							CHANNELS 3 Xrotation Zrotation Yrotation
							End Site
							{
								OFFSET 0.00000 0.00000 3.93700
							}
						}
					}
				}
			}
		}
		JOINT Head
		{
			OFFSET 0.00000 15.77748 0.00000
			CHANNELS 3 Xrotation Yrotation Zrotation
			End Site
			{
				OFFSET 0.00000 4.52755 0.00000
			}
		}
	}
}
MOTION
Frames: 9
Frame Time: 0.008333
 0.8193 32.8080 -1.9958 8.7678 -9.1492 3.3729 -23.1998 -18.3482 -13.4235 87.6775 0.0000 -0.0000 2.8285 -4.9922 16.7088 -2.6340 0.0000 -0.0000 -2.5496 0.5657 -10.8632 0.6938 0.0000 0.0000 -11.6999 8.3987 -1.6721 9.6154 -0.0000 -0.0000 -10.3280 1.9507 -3.5152 6.9371 -20.0808 -24.8686 -34.3226 -0.3179 43.6624 19.3980 0.0000 3.7551 1.0900 13.4324 -4.6823 32.8623 0.0000 -24.3270 -4.5902 21.3540 26.2120 -35.9989 20.3956 -40.8129 -58.9226 -0.0000 11.9421 0.0432 -0.0568 37.2507 33.1476 -0.0000 26.2537 17.8047 -4.0479 -1.3387
 0.8240 32.8066 -1.9917 8.7326 -8.9251 3.3705 -22.6798 -16.5112 -13.0504 87.8054 0.0000 0.0000 2.8621 -5.2064 15.6670 -3.5552 0.0000 -0.0000 -2.5241 0.5272 -10.8963 0.7046 -0.0000 -0.0000 -11.6672 8.2593 -1.6342 9.5524 -0.0000 0.0000 -10.3139 1.8235 -3.5643 6.9316 -20.1165 -24.8563 -34.2956 -0.3080 43.6704 19.3473 0.0000 3.7406 1.0630 13.4919 -4.5472 32.8623 0.0000 -24.3270 -4.6201 21.2880 26.2452 -35.9373 20.2965 -40.8730 -58.9123 -0.0000 12.0424 -0.1465 0.1966 36.6974 33.1476 -0.0000 26.2537 17.8354 -4.1528 -1.2644
 0.8305 32.8052 -1.9883 8.7210 -8.6967 3.3578 -22.1648 -14.6089 -12.6623 87.9463 -0.0000 -0.0000 2.8380 -5.5005 15.0115 -3.7559 -0.0000 -0.0000 -2.5123 0.4421 -10.9155 0.6759 -0.0000 0.0000 -11.6242 8.1424 -1.5719 9.4922 0.0000 0.0000 -10.3283 1.6678 -3.5864 6.9463 -20.1515 -24.8575 -34.3118 -0.3214 43.6994 19.3239 0.0000 3.7887 1.0194 13.4829 -4.3641 32.8623 0.0000 -24.3270 -4.6154 21.2646 26.2637 -35.9089 20.1992 -40.9436 -58.8760 -0.0000 12.0122 -0.1370 0.1844 36.6057 33.1476 -0.0000 26.2537 17.8620 -4.2350 -1.2192
 0.8339 32.8032 -1.9859 8.7016 -8.4422 3.3574 -21.6573 -12.6726 -12.2883 88.1256 0.0000 -0.0000 2.9101 -5.7983 14.3187 -4.1848 -0.0000 0.0000 -2.5332 0.1112 -10.9501 0.6291 -0.0000 -0.0000 -11.5684 8.2506 -1.4402 9.4414 -0.0000 0.0000 -10.3296 1.4872 -3.6560 6.8125 -20.1114 -24.8959 -34.1579 -0.3517 43.7477 19.3126 0.0000 3.7896 0.9807 13.3920 -4.2269 32.8623 0.0000 -24.3270 -4.6376 21.2158 26.3107 -35.8532 20.1047 -40.9933 -58.8552 -0.0000 12.0011 -0.2207 0.2963 36.6792 33.1476 -0.0000 26.2537 17.8805 -4.3160 -1.1157
 0.8367 32.8006 -1.9848 8.6831 -8.2078 3.3486 -21.1617 -10.6675 -11.8893 88.3364 0.0000 -0.0000 3.0756 -5.9662 13.3749 -5.0453 -0.0000 0.0000 -2.5286 -0.0463 -10.9709 0.5994 -0.0000 0.0000 -11.5231 8.2149 -1.3116 9.3080 0.0000 0.0000 -10.3197 1.3046 -3.7041 6.7910 -20.1061 -24.9023 -34.1313 -0.3710 43.7933 19.2839 0.0000 3.7861 1.0243 13.4197 -4.4051 32.8623 0.0000 -24.3270 -4.6667 21.1724 26.3463 -35.8360 20.0537 -41.0145 -58.7947 -0.0000 11.9872 -0.1335 0.1799 36.5838 33.1476 -0.0000 26.2537 17.8662 -4.3631 -1.0432
 0.8398 32.7970 -1.9831 8.6552 -7.9583 3.3496 -20.6444 -8.6066 -11.5032 88.5821 0.0000 -0.0000 3.1536 -6.2608 13.1024 -5.0744 0.0000 -0.0000 -2.5245 -0.2391 -11.0038 0.5796 0.0000 -0.0000 -11.4828 8.1601 -1.1723 9.1772 0.0000 -0.0000 -10.2971 1.1015 -3.7671 6.7554 -20.1058 -24.9152 -34.0913 -0.3753 43.8501 19.2798 0.0000 3.7393 1.0350 13.3345 -4.4791 32.8623 0.0000 -24.3270 -4.6827 21.1323 26.3730 -35.8487 20.0180 -41.0190 -58.7383 -0.0000 11.9867 -0.1288 0.1741 36.5012 33.1476 -0.0000 26.2537 17.8421 -4.4196 -0.9755
 0.8441 32.7923 -1.9841 8.6343 -7.6927 3.3511 -20.1309 -6.5066 -11.1301 88.8486 0.0000 -0.0000 3.1668 -6.3885 12.5622 -4.2359 0.0000 -0.0000 -2.5316 -0.3768 -11.0373 0.5684 -0.0000 0.0000 -11.4434 8.0450 -1.0776 9.0518 -0.0000 -0.0000 -10.2681 0.8994 -3.8296 6.7672 -20.1451 -24.9212 -34.0992 -0.4053 43.9215 19.3174 0.0000 3.6738 0.9858 13.2676 -4.2880 32.8623 0.0000 -24.3270 -4.7382 21.0403 26.4125 -35.8458 20.0279 -41.0105 -58.6699 -0.0000 12.0461 -0.0903 0.1222 36.4679 33.1476 -0.0000 26.2537 17.7900 -4.4817 -0.9006
 0.8436 32.7884 -1.9868 8.6300 -7.4531 3.3446 -19.6540 -4.3659 -10.7246 89.1381 0.0000 -0.0000 3.3550 -6.5429 12.0274 -4.5612 -0.0000 -0.0000 -2.5576 -0.5474 -11.0610 0.5449 0.0000 0.0000 -11.4155 8.0216 -0.9291 8.9824 0.0000 -0.0000 -10.2511 0.7033 -3.8890 6.7486 -20.1366 -24.9019 -34.0600 -0.3770 43.9477 19.2555 0.0000 3.6442 1.0699 13.4401 -4.5939 32.8623 0.0000 -24.3270 -4.8055 20.9622 26.4416 -35.8930 20.0410 -40.9703 -58.5679 -0.0000 12.1070 -0.1059 0.1431 36.4994 33.1476 -0.0000 26.2537 17.7337 -4.5115 -0.8251
 0.8444 32.7842 -1.9912 8.6322 -7.2187 3.3554 -19.2048 -2.1450 -10.3064 89.4919 -0.0000 -0.0000 3.3275 -6.8350 11.6626 -3.7652 -0.0000 -0.0000 -2.5749 -0.7031 -11.0911 0.4963 0.0000 -0.0000 -11.3709 7.9570 -0.8623 8.8989 0.0000 0.0000 -10.2331 0.5111 -3.9628 6.8168 -20.1879 -24.8684 -34.1290 -0.3733 44.0145 19.2713 0.0000 3.6532 1.0777 13.3897 -4.6440 32.8623 0.0000 -24.3270 -4.8597 20.8791 26.4540 -35.9860 20.0741 -40.9113 -58.4596 -0.0000 12.1100 -0.1393 0.1878 36.5629 33.1476 -0.0000 26.2537 17.6632 -4.5379 -0.7586
